<svg width="739" height="616" viewBox="0 0 739 616" fill="none" xmlns="http://www.w3.org/2000/svg">
<path fill-rule="evenodd" clip-rule="evenodd" d="M613.027 195.499C612.612 195.197 611.628 195.09 611.17 195C609.267 194.625 607.306 194.462 605.366 194.462C599.383 194.47 593.303 195.058 587.42 196.074C583.685 196.719 579.169 198.891 575.453 197.712C568.98 195.657 562.437 195.758 556.295 198.691C550.68 201.373 546.417 206.468 543.93 211.972C543.554 212.803 542.032 215.862 541.6 217.923C541.416 218.345 541.239 218.769 541.08 219.2C540.627 220.423 540.22 221.668 539.843 222.915C539.682 223.446 539.276 224.621 539.758 224.848C538.988 226.268 538.306 227.732 537.738 229.243C536.085 233.639 534.278 238.46 533.698 243.118C533.482 244.843 533.474 246.578 533.674 248.306C533.773 249.16 533.732 250.878 534.311 251.527C535.54 252.906 536.171 250.976 536.033 250.057C534.975 243.053 537.018 236.476 539.439 229.893C541.005 225.635 543.577 221.741 546.459 218.213C548.791 215.358 551.293 213.11 554.49 211.217C558.4 208.902 562.58 207.031 566.722 205.153C569.445 203.918 572.173 202.716 574.972 201.652C575.595 201.415 576.575 200.808 577.265 200.806C578.725 200.801 580.794 201.878 582.204 202.279C586.842 203.597 591.539 205.286 596.333 205.959C599.407 206.391 602.288 205.905 605.163 204.88C605.457 204.776 605.949 204.507 606.553 204.123C608.688 203.302 610.707 202.268 612.465 200.777C613.479 199.918 614.398 198.808 615.236 197.792C615.487 197.488 615.598 197.14 615.602 196.809C615.792 196.709 615.918 196.593 615.946 196.458C616.155 195.458 614.248 195.44 613.027 195.499Z" fill="#FFF8E6"/>
<path fill-rule="evenodd" clip-rule="evenodd" d="M127.026 278.869C125.852 279.82 124.701 280.791 123.578 281.801C122.722 282.571 121.207 283.492 120.9 284.659C120.581 285.871 121.589 287.005 122.386 287.738C126.598 291.614 131.342 294.234 137.179 294.67C146.167 295.341 153.989 293.046 161.788 288.529C167.266 285.357 170.894 280.664 171.687 274.328C178.21 277.039 184.52 280.776 189.882 285.363C192.527 287.626 194.806 290.134 196.914 292.913C198.263 294.693 199.569 296.502 200.781 298.381C201.308 299.197 201.843 300.645 202.713 301.115C203.733 301.667 204.967 300.801 204.917 299.666C204.875 298.722 203.854 297.626 203.378 296.854C202.585 295.571 201.781 294.297 200.934 293.05C199.564 291.031 198.148 289.04 196.604 287.151C193.133 282.905 188.716 279.398 184.138 276.407C175.355 270.67 165.716 267.055 155.029 266.749C148.458 266.561 142.93 268.806 137.311 272.159C133.812 274.246 130.201 276.298 127.026 278.869Z" fill="#DDE3E9"/>
<path fill-rule="evenodd" clip-rule="evenodd" d="M212.265 251.118C205.417 244.066 198.546 237.102 190.895 230.892C186.387 227.233 181.635 223.906 176.981 220.436C177.518 220.906 178.044 221.391 178.558 221.886C177.106 220.9 175.204 220.343 173.664 219.43C171.946 218.412 170.304 217.247 168.693 216.074C165.55 213.783 162.453 211.448 159.221 209.277C155.62 206.858 151.889 204.622 148.227 202.294C145.119 200.319 141.973 198.156 138.648 196.541C136.836 195.661 135.02 194.618 133.2 193.699C132.591 193.392 126.412 189.49 126.428 189.479C126.769 189.221 129.879 190.682 130.36 190.879C131.764 191.453 133.108 192.139 134.458 192.823C133.717 191.361 133.13 189.825 132.811 188.208C132.712 187.709 131.922 184.075 132.326 183.77C132.528 183.618 134.499 190.119 134.6 190.744C134.682 191.252 134.67 191.983 134.837 192.463C135.105 193.24 135.091 193.005 135.682 193.443C136.766 194.244 138.204 194.745 139.376 195.415C140.008 195.768 141.966 197.168 143.145 197.567C146.713 199.3 150.329 201.965 153.718 204.179C152.829 202.507 152.152 200.758 151.658 198.926C151.54 198.491 150.274 194.59 150.581 194.358C150.927 194.097 153.341 200.057 153.484 200.621C153.749 201.669 153.805 202.835 154.137 203.855C154.502 204.974 155.641 205.37 156.668 206.023C160.445 208.423 164.093 210.973 167.68 213.64C171.594 206.68 167.081 198.274 163.278 192.434C160.536 188.225 156.846 184.616 152.949 181.466C147.748 177.262 141.798 173.903 135.855 170.83C128.931 167.25 121.447 165.032 113.666 164.007C109.596 163.471 105.433 163.486 101.322 163.658C99.3143 163.742 97.387 164.008 95.4626 164.663C94.5953 164.958 93.7571 165.331 92.9402 165.748C92.3196 166.065 90.8182 166.399 90.4614 166.871C87.5239 170.695 86.0211 174.504 86.2506 179.309C86.4676 183.857 87.9039 188.407 89.8532 192.464C92.024 196.981 94.816 201.081 98.4675 204.522C101.253 207.147 104.368 209.432 107.462 211.687C118.467 219.707 132.419 226.682 146.672 224.89C151.286 224.31 155.674 222.697 159.775 220.504C160.741 219.988 161.702 219.465 162.614 218.855C163.229 218.444 164.873 216.591 165.491 216.523C166.339 216.431 168.166 218.156 168.961 218.681C175.007 222.671 180.894 226.878 186.657 231.255C192.789 235.912 198.62 240.886 204.28 246.093C206.687 248.308 209.079 250.528 211.416 252.817C211.96 253.35 213.291 255.311 214.278 255.4C214.902 255.456 215.322 254.924 215.233 254.346C215.078 253.342 212.966 251.841 212.265 251.118Z" fill="#FFFBEF"/>
<path fill-rule="evenodd" clip-rule="evenodd" d="M605.837 223.748C603.185 223.169 600.256 223.213 597.554 223.261C583.063 223.458 568.834 230.318 559.573 241.28C551.689 250.613 549.521 262.215 547.964 273.944C547.809 275.108 547.743 276.265 547.656 277.432C547.637 277.683 547.609 277.906 547.579 278.117C546.967 278.664 546.646 279.303 547.008 280.004C545.659 282.957 544.517 285.985 543.538 289.107C540.655 298.299 537.723 307.666 539.529 317.332C539.951 312.013 540.839 306.574 541.901 301.342C541.962 301.041 542.028 300.744 542.096 300.447C542.103 300.415 542.11 300.384 542.117 300.353C542.493 298.751 542.981 297.197 543.575 295.667C543.582 295.65 543.588 295.634 543.594 295.617C543.673 295.416 543.756 295.216 543.838 295.015C544.008 294.601 544.183 294.187 544.368 293.775C544.431 293.635 544.491 293.494 544.549 293.351C545.414 291.231 545.779 288.843 546.554 286.649C546.739 286.151 546.933 285.654 547.136 285.159C547.148 285.131 547.16 285.102 547.173 285.073C547.721 283.743 548.328 282.429 548.969 281.129C549.317 280.867 549.503 280.217 549.804 279.627C549.866 279.511 550.352 278.735 550.496 278.288C550.874 277.558 551.25 276.827 551.63 276.098C551.619 276.102 551.607 276.107 551.596 276.111C551.976 275.411 552.358 274.714 552.737 274.02C552.82 273.867 552.904 273.714 552.988 273.561C553.124 273.318 553.26 273.075 553.396 272.832C554.665 270.56 556.011 268.334 557.408 266.136C557.907 265.352 559.099 264.227 559.327 263.346C559.336 263.313 559.338 263.282 559.343 263.251C562.376 258.991 565.867 255.062 570.054 251.949C569.548 252.497 568.472 254.353 568.188 254.721C567.317 255.846 566.372 256.894 565.424 257.954C563.725 259.854 562.067 261.814 560.593 263.886C557.898 267.677 555.573 271.665 553.376 275.735C553.355 275.758 553.332 275.781 553.312 275.805C552.207 277.167 551.512 279.225 550.717 280.783C553.864 279.325 557.343 278.376 560.573 277.082C563.793 275.791 566.926 274.355 569.951 272.667C573.971 270.425 578.141 267.894 581.94 265.029C586.292 262.329 589.95 258.612 593.179 254.712C596.999 250.098 600.5 245.443 602.665 239.84C603.729 237.087 604.565 234.216 605.061 231.312C605.083 231.185 605.111 231.048 605.141 230.905C605.648 229.902 606.102 228.877 606.483 227.828C607.088 226.163 608.516 224.333 605.837 223.748Z" fill="#FFFDF8"/>
<path fill-rule="evenodd" clip-rule="evenodd" d="M101.323 232.531C100.272 231.483 99.0912 230.538 97.7052 229.863C97.3548 229.693 94.7447 228.551 94.5746 228.802C94.1786 229.385 101.007 232.197 101.323 232.531ZM113.698 225.531C113.69 225.575 114.595 226.989 114.841 227.424C115.366 228.348 115.85 229.291 116.305 230.235C115.631 228.567 114.938 227.021 113.698 225.531ZM50.4066 237.042C49.5349 237.3 48.4869 236.281 49.6175 236.031C50.5324 235.829 50.4875 235.782 50.8983 235.103C51.2318 234.552 51.4373 233.88 51.7301 233.302C52.3509 232.075 53.0552 230.906 53.9197 229.81C55.7724 227.46 58.0299 225.436 60.5617 223.73C64.9802 220.753 69.9345 218.032 75.1899 216.665C83.5461 214.491 93.0565 214.356 101.426 215.864C106.609 216.797 111.346 218.419 114.788 222.262C116.508 224.183 117.858 226.433 118.449 228.91C118.603 229.558 118.574 230.278 118.767 230.912C119.063 231.887 118.932 231.627 120.17 231.817C121.522 232.024 122.873 232.235 124.224 232.45C127.76 233.014 131.316 233.612 134.762 234.526C135.896 234.826 137.005 235.194 138.088 235.621C138.908 235.943 142.171 236.957 142.567 237.937C143.227 239.568 141.016 238.828 140.329 238.473C139.727 238.162 139.109 237.872 138.482 237.605C136.903 236.932 135.258 236.412 133.577 235.998C131.759 235.55 129.905 235.216 128.057 234.881C126.334 234.569 124.605 234.285 122.873 234.014C121.911 233.864 120.948 233.717 119.986 233.571C119.657 233.521 119.077 233.259 119.121 233.652C117.096 233.293 114.907 233.345 112.846 233.246C110.32 233.124 107.786 233.025 105.252 233.098C103.424 233.15 101.595 233.261 99.7772 233.487C98.7148 233.619 97.6693 233.812 96.627 234.057C96.0544 234.192 93.7966 234.477 93.4847 234.936C93.6187 234.739 96.1105 234.93 96.4277 234.919C97.6963 234.875 98.955 234.76 100.219 234.63C102.564 234.388 104.911 234.262 107.264 234.281C107.255 234.661 105.648 235.338 105.255 235.59C104.376 236.156 103.533 236.772 102.747 237.449C101.362 238.64 99.7046 240.115 98.7468 241.527C99.0291 241.111 100.421 240.57 100.916 240.252C101.707 239.743 102.483 239.199 103.217 238.619C103.894 238.082 104.526 237.503 105.148 236.912C105.769 236.32 106.613 235.089 107.43 234.695C107.479 234.671 107.835 234.93 108.037 234.842C108.241 234.753 108.495 234.31 108.547 234.291C109.307 234.021 110.751 234.357 111.55 234.391C113.623 234.479 115.694 234.594 117.765 234.699C118.407 234.732 118.952 234.597 119.195 235.033C119.453 235.498 118.98 236.72 118.845 237.226C118.346 239.107 117.459 240.793 116.062 242.25C113.447 244.979 110.223 246.798 106.58 248.015C92.6278 252.676 77.7843 254.542 63.8362 249.694C58.0617 247.686 49.3653 244.099 50.4066 237.042Z" fill="#FFFBEF"/>
<g opacity="0.4" clip-path="url(#clip0_587_744)">
<path fill-rule="evenodd" clip-rule="evenodd" d="M688.98 456.634C698.468 515.801 468.368 554.393 270.315 527.461C72.262 500.528 -18.5952 395.352 75.9122 339.311C170.42 283.269 679.492 397.467 688.98 456.634Z" fill="white"/>
</g>
<g clip-path="url(#clip1_587_744)">
<rect x="183.583" y="102.698" width="123.648" height="234.854" rx="6.22129" fill="#F2F2F2"/>
<path fill-rule="evenodd" clip-rule="evenodd" d="M245.018 322.776C251.46 322.776 256.683 317.553 256.683 311.111C256.683 304.668 251.46 299.446 245.018 299.446C238.576 299.446 233.353 304.668 233.353 311.111C233.353 317.553 238.576 322.776 245.018 322.776Z" fill="white"/>
<path fill-rule="evenodd" clip-rule="evenodd" d="M234.908 118.251C235.767 118.251 236.464 117.554 236.464 116.695C236.464 115.836 235.767 115.14 234.908 115.14C234.049 115.14 233.353 115.836 233.353 116.695C233.353 117.554 234.049 118.251 234.908 118.251Z" fill="white"/>
<rect x="240.352" y="115.14" width="16.3309" height="3.11064" rx="1.55532" fill="white"/>
<g clip-path="url(#clip2_587_744)">
<g clip-path="url(#clip3_587_744)">
<rect x="194.47" y="124.472" width="101.874" height="41.9937" rx="3.11064" fill="white"/>
<g clip-path="url(#clip4_587_744)">
<rect x="224.799" y="137.07" width="56.7692" height="6.29905" rx="2.33298" fill="#DDE3E9"/>
<rect x="224.799" y="147.569" width="38.1054" height="6.29905" rx="2.33298" fill="#DDE3E9"/>
</g>
<path fill-rule="evenodd" clip-rule="evenodd" d="M210.801 154.801C215.955 154.801 220.133 150.623 220.133 145.469C220.133 140.315 215.955 136.137 210.801 136.137C205.647 136.137 201.469 140.315 201.469 145.469C201.469 150.623 205.647 154.801 210.801 154.801Z" fill="#C5CFD6"/>
</g>
<g clip-path="url(#clip5_587_744)">
<rect x="194.47" y="172.687" width="101.874" height="32.6618" rx="3.11064" fill="white"/>
<g clip-path="url(#clip6_587_744)">
<rect x="224.799" y="182.486" width="56.7692" height="4.89926" rx="2.33298" fill="#DDE3E9"/>
<rect x="224.799" y="190.651" width="38.1054" height="4.89926" rx="2.33298" fill="#DDE3E9"/>
</g>
<path fill-rule="evenodd" clip-rule="evenodd" d="M210.801 198.35C215.955 198.35 220.133 194.172 220.133 189.018C220.133 183.864 215.955 179.686 210.801 179.686C205.647 179.686 201.469 183.864 201.469 189.018C201.469 194.172 205.647 198.35 210.801 198.35Z" fill="#C5CFD6"/>
</g>
<g clip-path="url(#clip7_587_744)">
<rect x="194.47" y="211.57" width="101.874" height="32.6618" rx="3.11064" fill="white"/>
<g clip-path="url(#clip8_587_744)">
<rect x="224.799" y="221.369" width="56.7692" height="4.89926" rx="2.33298" fill="#DDE3E9"/>
<rect x="224.799" y="229.534" width="38.1054" height="4.89926" rx="2.33298" fill="#DDE3E9"/>
</g>
<path fill-rule="evenodd" clip-rule="evenodd" d="M210.801 237.233C215.955 237.233 220.133 233.055 220.133 227.901C220.133 222.747 215.955 218.569 210.801 218.569C205.647 218.569 201.469 222.747 201.469 227.901C201.469 233.055 205.647 237.233 210.801 237.233Z" fill="#AFB9C5"/>
</g>
<g clip-path="url(#clip9_587_744)">
<rect x="194.47" y="250.453" width="101.874" height="32.6618" rx="3.11064" fill="white"/>
<g clip-path="url(#clip10_587_744)">
<rect x="224.799" y="260.252" width="56.7692" height="4.89926" rx="2.33298" fill="#DDE3E9"/>
<rect x="224.799" y="268.417" width="38.1054" height="4.89926" rx="2.33298" fill="#DDE3E9"/>
</g>
<path fill-rule="evenodd" clip-rule="evenodd" d="M210.801 276.116C215.955 276.116 220.133 271.938 220.133 266.784C220.133 261.63 215.955 257.452 210.801 257.452C205.647 257.452 201.469 261.63 201.469 266.784C201.469 271.938 205.647 276.116 210.801 276.116Z" fill="#C5CFD6"/>
</g>
</g>
</g>
<g clip-path="url(#clip11_587_744)">
<path fill-rule="evenodd" clip-rule="evenodd" d="M207.021 292.447C205.991 292.447 204.964 292.467 203.935 292.521C203.151 292.562 201.952 292.399 201.288 292.888C200.599 293.396 200.646 294.436 200.754 295.17C201.323 299.051 202.713 302.493 205.621 305.244C210.097 309.478 215.23 311.63 221.303 312.588C225.568 313.261 229.507 312.327 232.647 309.293C234.941 313.552 236.682 318.264 237.555 323.021C237.986 325.368 238.118 327.686 238.042 330.076C237.993 331.607 237.909 333.134 237.745 334.657C237.674 335.319 237.336 336.321 237.595 336.947C237.899 337.681 238.925 337.752 239.386 337.126C239.769 336.605 239.698 335.581 239.777 334.964C239.908 333.939 240.028 332.913 240.115 331.884C240.255 330.217 240.359 328.546 240.352 326.873C240.334 323.114 239.498 319.34 238.355 315.772C236.162 308.927 232.604 302.844 227.07 298.07C223.667 295.135 219.773 293.947 215.355 293.309C212.604 292.911 209.808 292.447 207.021 292.447Z" fill="#FFF8E6"/>
<path fill-rule="evenodd" clip-rule="evenodd" d="M222.91 319.665C211.79 319.665 204.301 328.627 200.76 337.941C199.425 341.452 199.113 345.307 198.598 348.994C198.433 350.177 198.494 351.98 198.014 353.034C197.84 353.416 197.44 353.553 197.631 354.074C197.747 354.389 197.974 354.583 198.314 354.645C199.014 354.774 200.003 354.012 200.603 353.711C205.576 351.217 208.844 347.36 211.51 342.641C213.163 339.716 214.84 336.679 215.821 333.468C216.421 331.507 216.77 329.441 216.975 327.406C217.056 326.604 217.134 325.784 217.129 324.978C217.125 324.178 216.752 323.755 216.485 323.058C220.195 321.654 224.383 321.271 228.142 322.727C231.618 324.073 234.505 326.674 236.122 329.942C236.542 330.792 236.866 331.688 237.102 332.602C237.257 333.201 237.264 333.977 237.55 334.518C238.245 335.831 239.705 334.953 239.565 333.732C239.174 330.325 237.225 326.904 234.733 324.535C231.591 321.547 227.332 319.665 222.91 319.665Z" fill="#FFF8E6"/>
<rect x="234.908" y="122.917" width="123.648" height="234.854" rx="6.22129" fill="#DDE3E9"/>
<path fill-rule="evenodd" clip-rule="evenodd" d="M296.344 342.995C302.786 342.995 308.008 337.772 308.008 331.33C308.008 324.887 302.786 319.665 296.344 319.665C289.901 319.665 284.679 324.887 284.679 331.33C284.679 337.772 289.901 342.995 296.344 342.995Z" fill="white"/>
<path fill-rule="evenodd" clip-rule="evenodd" d="M286.234 138.47C287.093 138.47 287.789 137.774 287.789 136.915C287.789 136.056 287.093 135.359 286.234 135.359C285.375 135.359 284.679 136.056 284.679 136.915C284.679 137.774 285.375 138.47 286.234 138.47Z" fill="white"/>
<rect x="291.678" y="135.359" width="16.3309" height="3.11064" rx="1.55532" fill="white"/>
<g clip-path="url(#clip12_587_744)">
<g clip-path="url(#clip13_587_744)">
<rect x="245.796" y="144.691" width="101.874" height="41.9937" rx="3.11064" fill="white"/>
<g clip-path="url(#clip14_587_744)">
<rect x="252.795" y="157.289" width="56.7692" height="6.29905" rx="2.33298" fill="#DDE3E9"/>
<rect x="252.795" y="167.788" width="38.1054" height="6.29905" rx="2.33298" fill="#DDE3E9"/>
</g>
<path fill-rule="evenodd" clip-rule="evenodd" d="M336.782 171.132C339.788 171.132 342.226 168.695 342.226 165.688C342.226 162.682 339.788 160.244 336.782 160.244C333.775 160.244 331.338 162.682 331.338 165.688C331.338 168.695 333.775 171.132 336.782 171.132Z" fill="#DDE3E9"/>
<path fill-rule="evenodd" clip-rule="evenodd" d="M336.782 168.021C338.07 168.021 339.115 166.977 339.115 165.688C339.115 164.4 338.07 163.355 336.782 163.355C335.493 163.355 334.449 164.4 334.449 165.688C334.449 166.977 335.493 168.021 336.782 168.021Z" fill="#F2F2F2"/>
</g>
<g clip-path="url(#clip15_587_744)">
<rect x="245.796" y="192.906" width="101.874" height="32.6618" rx="3.11064" fill="white"/>
<g clip-path="url(#clip16_587_744)">
<rect x="276.124" y="202.705" width="56.7692" height="4.89926" rx="2.33298" fill="#DDE3E9"/>
<rect x="276.124" y="210.87" width="38.1054" height="4.89926" rx="2.33298" fill="#DDE3E9"/>
</g>
<path fill-rule="evenodd" clip-rule="evenodd" d="M262.126 218.569C267.28 218.569 271.458 214.391 271.458 209.237C271.458 204.083 267.28 199.905 262.126 199.905C256.973 199.905 252.795 204.083 252.795 209.237C252.795 214.391 256.973 218.569 262.126 218.569Z" fill="#C5CFD6"/>
</g>
<g clip-path="url(#clip17_587_744)">
<rect x="245.796" y="231.789" width="101.874" height="32.6618" rx="3.11064" fill="white"/>
<g clip-path="url(#clip18_587_744)">
<rect x="252.795" y="241.588" width="56.7692" height="4.89926" rx="2.33298" fill="#DDE3E9"/>
<rect x="252.795" y="249.753" width="38.1054" height="4.89926" rx="2.33298" fill="#AFB9C5"/>
</g>
<path fill-rule="evenodd" clip-rule="evenodd" d="M336.782 253.564C339.788 253.564 342.226 251.127 342.226 248.12C342.226 245.114 339.788 242.676 336.782 242.676C333.775 242.676 331.338 245.114 331.338 248.12C331.338 251.127 333.775 253.564 336.782 253.564Z" fill="#DDE3E9"/>
<path fill-rule="evenodd" clip-rule="evenodd" d="M336.782 250.453C338.07 250.453 339.115 249.409 339.115 248.12C339.115 246.832 338.07 245.787 336.782 245.787C335.493 245.787 334.449 246.832 334.449 248.12C334.449 249.409 335.493 250.453 336.782 250.453Z" fill="#F2F2F2"/>
</g>
<g clip-path="url(#clip19_587_744)">
<rect x="245.796" y="270.672" width="101.874" height="32.6618" rx="3.11064" fill="white"/>
<g clip-path="url(#clip20_587_744)">
<rect x="276.124" y="280.471" width="56.7692" height="4.89926" rx="2.33298" fill="#DDE3E9"/>
<rect x="276.124" y="288.636" width="38.1054" height="4.89926" rx="2.33298" fill="#DDE3E9"/>
</g>
<path fill-rule="evenodd" clip-rule="evenodd" d="M262.126 296.335C267.28 296.335 271.458 292.157 271.458 287.003C271.458 281.849 267.28 277.671 262.126 277.671C256.973 277.671 252.795 281.849 252.795 287.003C252.795 292.157 256.973 296.335 262.126 296.335Z" fill="#C5CFD6"/>
</g>
</g>
</g>
<g clip-path="url(#clip21_587_744)">
<rect x="286.234" y="142.358" width="260.516" height="269.071" rx="6.22129" fill="#F2F2F2"/>
<rect x="479.871" y="175.798" width="54.4363" height="62.9905" rx="6.22129" fill="white"/>
<path fill-rule="evenodd" clip-rule="evenodd" d="M507.09 212.348C513.961 212.348 519.532 206.777 519.532 199.905C519.532 193.033 513.961 187.463 507.09 187.463C500.218 187.463 494.647 193.033 494.647 199.905C494.647 206.777 500.218 212.348 507.09 212.348Z" fill="#DDE3E9"/>
<rect x="487.648" y="215.458" width="38.883" height="4.66596" rx="2.33298" fill="#DDE3E9"/>
<rect x="493.869" y="223.235" width="26.4405" height="4.66596" rx="2.33298" fill="#DDE3E9"/>
<path d="M286.234 148.58C286.234 145.144 289.019 142.358 292.455 142.358H540.529C543.965 142.358 546.75 145.144 546.75 148.58V163.355H286.234V148.58Z" fill="#C5CFD6"/>
<path fill-rule="evenodd" clip-rule="evenodd" d="M296.344 156.356C298.061 156.356 299.454 154.963 299.454 153.246C299.454 151.528 298.061 150.135 296.344 150.135C294.626 150.135 293.233 151.528 293.233 153.246C293.233 154.963 294.626 156.356 296.344 156.356Z" fill="#F2F2F2"/>
<path fill-rule="evenodd" clip-rule="evenodd" d="M305.675 156.356C307.393 156.356 308.786 154.963 308.786 153.246C308.786 151.528 307.393 150.135 305.675 150.135C303.957 150.135 302.565 151.528 302.565 153.246C302.565 154.963 303.957 156.356 305.675 156.356Z" fill="#F2F2F2"/>
<path fill-rule="evenodd" clip-rule="evenodd" d="M315.007 156.356C316.725 156.356 318.118 154.963 318.118 153.246C318.118 151.528 316.725 150.135 315.007 150.135C313.289 150.135 311.897 151.528 311.897 153.246C311.897 154.963 313.289 156.356 315.007 156.356Z" fill="#F2F2F2"/>
<g clip-path="url(#clip22_587_744)">
<rect x="479.871" y="245.009" width="54.4363" height="150.866" rx="6.22129" fill="white"/>
<g clip-path="url(#clip23_587_744)">
<rect x="493.869" y="259.007" width="26.4405" height="20.2192" rx="3.11064" fill="#DDE3E9"/>
<rect x="493.869" y="285.448" width="26.4405" height="19.4415" rx="3.11064" fill="#AFB9C5"/>
<rect x="493.869" y="311.111" width="26.4405" height="19.4415" rx="3.11064" fill="#DDE3E9"/>
<rect x="493.869" y="362.436" width="26.4405" height="19.4415" rx="3.11064" fill="#DDE3E9"/>
<rect x="493.869" y="336.773" width="26.4405" height="19.4415" rx="3.11064" fill="#C5CFD6"/>
</g>
</g>
<g clip-path="url(#clip24_587_744)">
<g clip-path="url(#clip25_587_744)">
<rect x="298.676" y="176.575" width="174.974" height="36.5501" rx="3.11064" fill="white"/>
<g clip-path="url(#clip26_587_744)">
<rect x="305.675" y="187.54" width="129.869" height="5.48251" rx="2.33298" fill="#DDE3E9"/>
<rect x="305.675" y="196.678" width="87.1726" height="5.48251" rx="2.33298" fill="#DDE3E9"/>
</g>
<path fill-rule="evenodd" clip-rule="evenodd" d="M454.951 200.294C457.957 200.294 460.394 197.857 460.394 194.85C460.394 191.844 457.957 189.407 454.951 189.407C451.944 189.407 449.507 191.844 449.507 194.85C449.507 197.857 451.944 200.294 454.951 200.294Z" fill="#DDE3E9"/>
<path fill-rule="evenodd" clip-rule="evenodd" d="M454.951 197.183C456.239 197.183 457.284 196.139 457.284 194.85C457.284 193.562 456.239 192.517 454.951 192.517C453.662 192.517 452.618 193.562 452.618 194.85C452.618 196.139 453.662 197.183 454.951 197.183Z" fill="#F2F2F2"/>
</g>
<g clip-path="url(#clip27_587_744)">
<rect x="298.676" y="219.347" width="174.974" height="30.3288" rx="3.11064" fill="white"/>
<g clip-path="url(#clip28_587_744)">
<rect x="305.675" y="228.445" width="129.869" height="4.54931" rx="2.27466" fill="#DDE3E9"/>
<rect x="305.675" y="236.027" width="87.1726" height="4.54931" rx="2.27466" fill="#DDE3E9"/>
</g>
<path fill-rule="evenodd" clip-rule="evenodd" d="M454.951 239.955C457.957 239.955 460.394 237.517 460.394 234.511C460.394 231.505 457.957 229.067 454.951 229.067C451.944 229.067 449.507 231.505 449.507 234.511C449.507 237.517 451.944 239.955 454.951 239.955Z" fill="#DDE3E9"/>
<path fill-rule="evenodd" clip-rule="evenodd" d="M454.951 236.844C456.239 236.844 457.284 235.8 457.284 234.511C457.284 233.223 456.239 232.178 454.951 232.178C453.662 232.178 452.618 233.223 452.618 234.511C452.618 235.8 453.662 236.844 454.951 236.844Z" fill="#F2F2F2"/>
</g>
<g clip-path="url(#clip29_587_744)">
<rect x="298.676" y="255.897" width="174.974" height="30.3288" rx="3.11064" fill="white"/>
<g clip-path="url(#clip30_587_744)">
<rect x="305.675" y="264.995" width="129.869" height="4.54931" rx="2.27466" fill="#DDE3E9"/>
<rect x="305.675" y="272.578" width="87.1726" height="4.54931" rx="2.27466" fill="#DDE3E9"/>
</g>
<path fill-rule="evenodd" clip-rule="evenodd" d="M454.951 276.505C457.957 276.505 460.394 274.068 460.394 271.061C460.394 268.055 457.957 265.617 454.951 265.617C451.944 265.617 449.507 268.055 449.507 271.061C449.507 274.068 451.944 276.505 454.951 276.505Z" fill="#DDE3E9"/>
<path fill-rule="evenodd" clip-rule="evenodd" d="M454.951 273.394C456.239 273.394 457.284 272.35 457.284 271.061C457.284 269.773 456.239 268.728 454.951 268.728C453.662 268.728 452.618 269.773 452.618 271.061C452.618 272.35 453.662 273.394 454.951 273.394Z" fill="#AFB9C5"/>
</g>
<g clip-path="url(#clip31_587_744)">
<rect x="298.676" y="365.547" width="174.974" height="30.3288" rx="3.11064" fill="white"/>
<g clip-path="url(#clip32_587_744)">
<rect x="305.675" y="374.646" width="129.869" height="4.54931" rx="2.27466" fill="#DDE3E9"/>
<rect x="305.675" y="382.228" width="87.1726" height="4.54931" rx="2.27466" fill="#DDE3E9"/>
</g>
<path fill-rule="evenodd" clip-rule="evenodd" d="M454.951 386.155C457.957 386.155 460.394 383.718 460.394 380.711C460.394 377.705 457.957 375.268 454.951 375.268C451.944 375.268 449.507 377.705 449.507 380.711C449.507 383.718 451.944 386.155 454.951 386.155Z" fill="#DDE3E9"/>
<path fill-rule="evenodd" clip-rule="evenodd" d="M454.951 383.044C456.239 383.044 457.284 382 457.284 380.711C457.284 379.423 456.239 378.378 454.951 378.378C453.662 378.378 452.618 379.423 452.618 380.711C452.618 382 453.662 383.044 454.951 383.044Z" fill="#F2F2F2"/>
</g>
<g clip-path="url(#clip33_587_744)">
<rect x="298.676" y="328.997" width="174.974" height="30.3288" rx="3.11064" fill="white"/>
<g clip-path="url(#clip34_587_744)">
<rect x="305.675" y="338.095" width="129.869" height="4.54931" rx="2.27466" fill="#DDE3E9"/>
<rect x="305.675" y="345.678" width="87.1726" height="4.54931" rx="2.27466" fill="#DDE3E9"/>
</g>
<path fill-rule="evenodd" clip-rule="evenodd" d="M454.951 349.605C457.957 349.605 460.394 347.168 460.394 344.161C460.394 341.155 457.957 338.718 454.951 338.718C451.944 338.718 449.507 341.155 449.507 344.161C449.507 347.168 451.944 349.605 454.951 349.605Z" fill="#DDE3E9"/>
<path fill-rule="evenodd" clip-rule="evenodd" d="M454.951 346.494C456.239 346.494 457.284 345.45 457.284 344.161C457.284 342.873 456.239 341.828 454.951 341.828C453.662 341.828 452.618 342.873 452.618 344.161C452.618 345.45 453.662 346.494 454.951 346.494Z" fill="#F2F2F2"/>
</g>
<g clip-path="url(#clip35_587_744)">
<rect x="298.676" y="292.447" width="174.974" height="30.3288" rx="3.11064" fill="white"/>
<g clip-path="url(#clip36_587_744)">
<rect x="305.675" y="301.545" width="129.869" height="4.54931" rx="2.27466" fill="#DDE3E9"/>
<rect x="305.675" y="309.128" width="87.1726" height="4.54931" rx="2.27466" fill="#DDE3E9"/>
</g>
<path fill-rule="evenodd" clip-rule="evenodd" d="M454.951 313.055C457.957 313.055 460.394 310.618 460.394 307.611C460.394 304.605 457.957 302.168 454.951 302.168C451.944 302.168 449.507 304.605 449.507 307.611C449.507 310.618 451.944 313.055 454.951 313.055Z" fill="#DDE3E9"/>
<path fill-rule="evenodd" clip-rule="evenodd" d="M454.951 309.944C456.239 309.944 457.284 308.9 457.284 307.611C457.284 306.323 456.239 305.278 454.951 305.278C453.662 305.278 452.618 306.323 452.618 307.611C452.618 308.9 453.662 309.944 454.951 309.944Z" fill="#F2F2F2"/>
</g>
</g>
</g>
<path fill-rule="evenodd" clip-rule="evenodd" d="M611.285 274.853C608.218 272.773 604.139 272.228 600.468 272.228C586.131 272.228 572.655 277.547 561.013 285.473C554.634 289.815 548.928 295.346 543.89 301.104C540.982 304.428 538.389 308.024 536.553 312.023C535.314 314.722 534.464 317.535 533.888 320.435C533.185 323.971 532.627 327.578 532.375 331.172C532.276 332.587 531.453 340.097 533.807 340.225C533.793 340.41 533.79 340.586 533.804 340.744C528.695 348.734 525.538 358.097 522.61 366.974C520.063 374.699 517.794 382.489 516.32 390.481C514.38 401.002 513.106 411.682 512.501 422.355C512.37 424.648 512.281 426.943 512.204 429.24C512.139 431.199 512.073 433.158 512.009 435.117C511.937 437.312 511.55 439.84 511.9 442.022C512.203 443.923 513.848 443.635 513.921 441.744C514.009 439.46 513.995 437.171 514.094 434.885C514.227 431.851 514.364 428.818 514.513 425.785C515.546 404.717 519.423 383.958 526.579 364.057C529.474 356.004 532.792 348.38 537.057 340.93C540.806 334.38 545.316 328.038 549.926 322.132C554.407 316.393 559.065 310.786 564.555 305.924C569.01 301.978 573.911 298.54 578.948 295.341C585.347 291.279 591.732 287.315 598.663 284.197C602.266 282.576 605.936 281.124 609.567 279.569C610.22 279.289 610.921 279.018 611.549 278.694C613.645 277.613 612.955 275.985 611.285 274.853Z" fill="#FFFBEF"/>
<path fill-rule="evenodd" clip-rule="evenodd" d="M553.608 348.438C559.422 348.438 564.597 349.194 569.954 351.505C574.579 353.499 578.794 356.139 582.886 359.014C588.642 363.057 593.175 367.762 596.349 373.996C598.245 377.721 599.636 382.991 598.362 387.053C596.862 391.838 592.744 395.828 587.32 394.985C583.966 394.464 580.892 392.244 578.343 390.154C575.293 387.654 572.852 384.649 570.836 381.31C567.548 375.864 565.616 369.708 562.823 364.018C561.498 361.317 560.217 358.597 558.629 356.03C557.844 354.759 557.007 353.5 555.815 352.555C555.177 352.05 552.487 351.176 553.516 350.041C538.437 350.239 525.078 361.82 522.183 376.155C521.914 377.491 521.703 378.838 521.481 380.182C521.34 381.031 521.397 384.161 520.638 384.704C518.964 385.9 519.668 382.266 519.74 381.743C519.925 380.39 520.123 379.039 520.331 377.69C521.461 370.354 524.728 363.534 530.174 358.302C536.403 352.319 544.807 348.438 553.608 348.438Z" fill="#FFF8E6"/>
<path fill-rule="evenodd" clip-rule="evenodd" d="M58.2762 373.943C72.7924 398.295 89.6992 421.876 99.8523 448.502C99.4431 445.363 99.0093 442.228 98.5237 439.097C95.9475 422.502 92.7457 406.027 89.3811 389.572C87.6677 381.194 85.8555 372.847 83.9969 364.5C82.9973 360.017 82.0099 355.531 80.9897 351.052C80.7425 349.967 80.5302 348.072 80.2208 346.152C90.088 378.531 99.6034 410.935 106.563 444.092C107.477 448.444 108.254 452.788 108.891 457.124C109.109 456.135 109.323 455.145 109.558 454.159C112.374 442.333 116.598 430.601 121.628 419.543C124.033 414.255 126.795 409.083 130.047 404.263C132.075 401.259 136.857 397.688 138.707 394.611C128.59 413.167 124.937 436.385 119.095 456.559C117.669 461.482 116.234 466.397 114.829 471.32C123.638 453.653 137.306 439.138 156.31 432.847C133.307 448.046 119.509 474.663 110.212 501.886C110.181 502.209 110.145 502.532 110.113 502.855C112.849 497.662 116.295 492.966 120.966 489.676C130.963 482.635 142.053 484.686 151.75 490.727C144.14 485.889 130.385 490.294 123.981 495.211C119.396 498.731 115.479 503.453 112.076 508.06C111.261 509.165 110.149 510.453 108.974 511.828C107.327 522.522 104.642 533.142 100.841 543.678C101.468 540.653 101.015 535.817 101.189 533.563C101.208 533.319 101.223 533.075 101.242 532.831C100.664 535.138 100.106 537.419 99.5686 539.662C100.637 535.381 101.218 530.911 101.671 526.395C101.788 524.454 101.901 522.513 102.022 520.573C101.984 516.89 101.832 513.192 101.575 509.489C100.666 505.889 99.6469 502.494 98.8069 499.671C95.7755 489.483 91.3317 479.722 85.8622 470.617C80.8718 462.308 74.8984 454.781 68.0024 447.974C64.2848 444.306 60.3942 440.812 56.5584 437.27C55.1713 435.989 52.6921 432.841 50.5479 431.199C66.1638 439.808 82.2367 449.122 93.6285 462.993C92.2929 457.865 90.8423 452.809 89.3079 447.854C81.5231 422.716 71.6936 396.663 58.2762 373.943Z" fill="#DDE3E9"/>
<path fill-rule="evenodd" clip-rule="evenodd" d="M73.8778 511.793C73.8778 539.71 76.0885 562.341 105.762 562.341C135.435 562.341 137.646 539.71 137.646 511.793" fill="#C5CFD6"/>
<rect x="480.649" y="108.919" width="4.66596" height="19.4415" rx="2.33298" fill="#DDE3E9"/>
<rect x="491.536" y="96.4763" width="4.66596" height="31.8841" rx="2.33298" fill="#DDE3E9"/>
<rect x="502.424" y="90.255" width="4.66596" height="38.1054" rx="2.33298" fill="#DDE3E9"/>
<rect x="513.311" y="96.4763" width="4.66596" height="31.8841" rx="2.33298" fill="#DDE3E9"/>
<rect x="524.198" y="84.0337" width="4.66596" height="44.3267" rx="2.33298" fill="#C5CFD6"/>
<path fill-rule="evenodd" clip-rule="evenodd" d="M98.04 322.197C98.04 313.535 105.041 306.445 113.593 306.445V322.197L102.964 333.663C99.9406 330.86 98.04 326.747 98.04 322.197Z" fill="#F2F2F2"/>
<path fill-rule="evenodd" clip-rule="evenodd" d="M113.182 321.998H128.888C128.888 326.058 127.232 329.862 124.614 332.627C121.734 335.651 117.633 337.551 113.182 337.551C109.081 337.551 105.328 335.911 102.448 333.318L113.182 321.998Z" fill="#AFB9C5"/>
<path fill-rule="evenodd" clip-rule="evenodd" d="M129.146 321.998C129.146 313.445 122.146 306.445 113.593 306.445V321.998H129.146ZM105.817 306.445L112.038 320.443L98.04 314.221C99.4243 310.593 102.533 307.829 105.817 306.445Z" fill="#C5CFD6"/>
<path fill-rule="evenodd" clip-rule="evenodd" d="M604.116 329.136C602.621 330.722 600.504 331.719 598.15 331.719C593.626 331.719 589.959 328.063 589.959 323.553C589.959 319.044 593.626 315.388 598.15 315.388V300.223C585.28 300.223 574.746 310.724 574.746 323.553C574.746 336.382 585.28 346.883 598.15 346.883C604.91 346.883 611.02 344.032 615.184 339.497L604.116 329.136Z" fill="#F2F2F2"/>
<path fill-rule="evenodd" clip-rule="evenodd" d="M598.076 300.223V315.388C602.586 315.388 606.241 319.044 606.241 323.553H621.406C621.406 310.724 610.905 300.223 598.076 300.223Z" fill="#AFB9C5"/>
<path fill-rule="evenodd" clip-rule="evenodd" d="M605.928 323.553C605.928 326.203 604.68 328.558 602.742 330.078L612.277 342.217C617.828 337.871 621.406 331.135 621.406 323.553H605.928Z" fill="#C5CFD6"/>
<path fill-rule="evenodd" clip-rule="evenodd" d="M455.804 114.754C454.654 115.971 453.026 116.734 451.215 116.734C447.735 116.734 444.914 113.932 444.914 110.474C444.914 107.017 447.735 104.214 451.215 104.214V92.588C441.315 92.588 433.212 100.639 433.212 110.474C433.212 120.31 441.315 128.36 451.215 128.36C456.415 128.36 461.115 126.175 464.318 122.698L455.804 114.754Z" fill="#F2F2F2"/>
<path fill-rule="evenodd" clip-rule="evenodd" d="M451.098 92.588V104.214C454.555 104.214 457.358 107.017 457.358 110.474H468.984C468.984 100.639 460.934 92.588 451.098 92.588Z" fill="#AFB9C5"/>
<path fill-rule="evenodd" clip-rule="evenodd" d="M457.376 110.474C457.376 112.461 456.44 114.228 454.986 115.368L462.138 124.472C466.301 121.213 468.984 116.16 468.984 110.474H457.376Z" fill="#C5CFD6"/>
<path fill-rule="evenodd" clip-rule="evenodd" d="M172.701 128.35C172.698 128.357 172.695 128.365 172.69 128.375C172.695 128.367 172.701 128.336 172.701 128.35Z" fill="#C5CFD6"/>
<path fill-rule="evenodd" clip-rule="evenodd" d="M172.694 128.362C172.694 128.363 172.692 128.366 172.692 128.369C172.692 128.362 172.706 128.338 172.694 128.362Z" fill="#C5CFD6"/>
<path fill-rule="evenodd" clip-rule="evenodd" d="M172.748 128.23C172.737 128.261 172.723 128.291 172.71 128.322C172.717 128.306 172.723 128.294 172.729 128.278C172.567 128.683 172.67 128.42 172.748 128.23Z" fill="#C5CFD6"/>
<path fill-rule="evenodd" clip-rule="evenodd" d="M172.713 128.324C172.707 128.338 172.7 128.353 172.694 128.367C172.649 128.454 172.713 128.324 172.713 128.324Z" fill="#C5CFD6"/>
<path fill-rule="evenodd" clip-rule="evenodd" d="M172.695 128.362C172.695 128.36 172.695 128.36 172.696 128.359C172.695 128.36 172.695 128.36 172.695 128.362Z" fill="#C5CFD6"/>
<path fill-rule="evenodd" clip-rule="evenodd" d="M172.687 128.373C172.678 128.392 172.731 128.302 172.687 128.373V128.373Z" fill="#C5CFD6"/>
<path fill-rule="evenodd" clip-rule="evenodd" d="M172.694 128.362L172.697 128.359C172.695 128.36 172.695 128.362 172.694 128.362Z" fill="#C5CFD6"/>
<rect x="135.368" y="87.922" width="73.8778" height="48.9926" rx="3.11064" fill="#DDE3E9"/>
<path fill-rule="evenodd" clip-rule="evenodd" d="M163.364 101.92L141.589 136.915H185.138L163.364 101.92Z" fill="#AFB9C5"/>
<path fill-rule="evenodd" clip-rule="evenodd" d="M184.749 111.252L165.697 136.915H203.802L184.749 111.252Z" fill="#C5CFD6"/>
<path fill-rule="evenodd" clip-rule="evenodd" d="M192.915 111.252C196.78 111.252 199.914 108.118 199.914 104.253C199.914 100.387 196.78 97.2539 192.915 97.2539C189.049 97.2539 185.916 100.387 185.916 104.253C185.916 108.118 189.049 111.252 192.915 111.252Z" fill="white"/>
<path fill-rule="evenodd" clip-rule="evenodd" d="M543.634 460.411C543.637 460.419 543.64 460.426 543.645 460.436C543.64 460.428 543.634 460.397 543.634 460.411Z" fill="#C5CFD6"/>
<path fill-rule="evenodd" clip-rule="evenodd" d="M543.641 460.423C543.641 460.424 543.643 460.427 543.643 460.43C543.643 460.423 543.629 460.399 543.641 460.423Z" fill="#C5CFD6"/>
<path fill-rule="evenodd" clip-rule="evenodd" d="M543.587 460.291C543.598 460.322 543.612 460.352 543.625 460.383C543.618 460.367 543.612 460.355 543.606 460.339C543.768 460.744 543.665 460.481 543.587 460.291Z" fill="#C5CFD6"/>
<path fill-rule="evenodd" clip-rule="evenodd" d="M543.622 460.385C543.628 460.399 543.635 460.414 543.641 460.428C543.686 460.515 543.622 460.385 543.622 460.385Z" fill="#C5CFD6"/>
<path fill-rule="evenodd" clip-rule="evenodd" d="M543.64 460.423C543.64 460.422 543.64 460.422 543.639 460.42C543.64 460.422 543.64 460.422 543.64 460.423Z" fill="#C5CFD6"/>
<path fill-rule="evenodd" clip-rule="evenodd" d="M543.648 460.434C543.657 460.453 543.604 460.363 543.648 460.434V460.434Z" fill="#C5CFD6"/>
<path fill-rule="evenodd" clip-rule="evenodd" d="M543.641 460.423L543.638 460.42C543.64 460.422 543.64 460.423 543.641 460.423Z" fill="#C5CFD6"/>
<rect width="110.428" height="73.1001" rx="3.11064" transform="matrix(-1 0 0 1 598.854 400.542)" fill="#DDE3E9"/>
<path fill-rule="evenodd" clip-rule="evenodd" d="M557.851 421.538L589.778 473.642H525.924L557.851 421.538Z" fill="#AFB9C5"/>
<path fill-rule="evenodd" clip-rule="evenodd" d="M524.932 435.495L553.158 473.642H496.707L524.932 435.495Z" fill="#C5CFD6"/>
<path fill-rule="evenodd" clip-rule="evenodd" d="M512.922 435.536C507.124 435.536 502.424 430.836 502.424 425.038C502.424 419.24 507.124 414.54 512.922 414.54C518.72 414.54 523.42 419.24 523.42 425.038C523.42 430.836 518.72 435.536 512.922 435.536Z" fill="white"/>
<path fill-rule="evenodd" clip-rule="evenodd" d="M194.365 321.467C199.401 324.503 204.349 325.969 206.671 325.37C212.495 323.869 213.031 302.563 208.525 294.163C204.018 285.764 180.851 282.103 179.684 298.745C179.279 304.521 181.704 309.676 185.287 313.882L178.862 343.829H197.526L194.365 321.467Z" fill="#B28B67"/>
<path fill-rule="evenodd" clip-rule="evenodd" d="M201.152 285.015C198.602 284.237 194.9 283.974 193.343 284.152C194.229 282.029 194.58 279.665 194.293 277.362C194.015 275.125 193.015 273.22 192.091 271.223C191.664 270.303 191.181 269.388 190.461 268.684C189.728 267.967 188.799 267.494 187.825 267.268C186.829 267.037 185.787 267.056 184.789 267.266C184.348 267.359 183.951 267.561 183.518 267.673C183.075 267.788 182.86 267.51 182.538 267.232C181.763 266.56 180.626 266.228 179.644 266.109C178.543 265.976 177.401 266.142 176.351 266.504C175.329 266.856 174.347 267.428 173.609 268.262C173.28 268.633 172.981 269.055 172.787 269.521C172.707 269.712 172.694 269.826 172.503 269.896C172.327 269.961 172.12 269.963 171.938 270.024C170.176 270.621 168.669 271.983 167.849 273.731C167.37 274.751 167.144 276.546 167.206 278.559C167.268 280.571 169.085 285.822 170.785 287.738C172.302 289.447 174.532 290.575 176.684 291.069C175.255 292.702 174.304 294.742 173.601 296.817C172.838 299.071 172.365 301.413 172.19 303.799C172.025 306.067 172.009 308.464 172.541 310.683C173.038 312.758 174.101 314.46 175.876 315.54C176.689 316.035 177.564 316.406 178.444 316.746C179.311 317.081 180.181 317.406 181.089 317.594C182.809 317.949 184.789 317.888 186.114 316.52C186.591 316.026 187.116 315.407 187.464 314.804C187.589 314.587 187.665 314.446 187.513 314.234C187.33 313.98 187.036 313.786 186.802 313.587C185.467 312.456 184.64 310.945 184.432 309.15C184.221 307.328 184.71 304.977 186.481 304.182C188.667 303.201 191.075 304.327 193.018 305.377C193.843 302.463 195.539 299.838 198.197 298.501C201.138 297.022 204.513 296.849 207.535 295.58C208.323 295.25 209.125 294.874 209.705 294.201C209.947 293.919 210.231 293.554 210.328 293.181C210.455 292.692 210.14 292.282 209.896 291.9C208.604 289.878 203.703 285.793 201.152 285.015Z" fill="#191847"/>
<path fill-rule="evenodd" clip-rule="evenodd" d="M173.418 406.042L201.905 504.204L215.303 577.905H228.751L215.327 406.042H173.418Z" fill="#997659"/>
<path fill-rule="evenodd" clip-rule="evenodd" d="M160.616 406.042C162.604 457.037 161.82 484.851 161.375 489.484C160.93 494.117 158.405 525.146 141.195 579.461H155.182C177.974 527.355 185.93 496.326 188.544 489.484C191.158 482.642 198.878 454.828 210.15 406.042H160.616Z" fill="#B28B67"/>
<path fill-rule="evenodd" clip-rule="evenodd" d="M172.807 406.042C180.217 439.82 193.032 493.738 211.254 567.796H230.923C232.376 491.782 226.196 441.753 215.493 406.042H172.807Z" fill="#F3EBD3"/>
<path fill-rule="evenodd" clip-rule="evenodd" d="M160.517 406.042C162.464 457.037 157.419 507.276 141.791 568.59H162.777C185.611 517.262 201.976 467.27 213.161 406.042H160.517Z" fill="#FFFBEF"/>
<path fill-rule="evenodd" clip-rule="evenodd" d="M139.201 589.57L139.913 578.099C139.944 577.601 140.428 577.261 140.916 577.364C147.656 578.796 156.952 575.572 156.952 575.572C166.308 582.2 179.796 585.241 184.545 586.152C185.464 586.328 186.054 587.255 185.798 588.155L184.736 591.903H156.952H140.745L139.201 589.57Z" fill="#191847"/>
<path fill-rule="evenodd" clip-rule="evenodd" d="M212.301 589.57L213.013 578.099C213.044 577.601 213.528 577.261 214.016 577.364C220.756 578.796 230.052 575.572 230.052 575.572C239.408 582.2 252.896 585.241 257.645 586.152C258.564 586.328 259.154 587.255 258.899 588.155L257.836 591.903H230.052H213.845L212.301 589.57Z" fill="#191847"/>
<path fill-rule="evenodd" clip-rule="evenodd" d="M239.79 345.144L212.798 359.927L222.765 370.626L242.379 352.668C252.711 349.82 257.436 347.737 256.554 346.419C255.81 345.307 254.61 345.345 253.506 345.381C252.645 345.409 251.841 345.434 251.356 344.913C250.247 343.723 252.363 339.56 254.54 335.696C256.717 331.832 254.389 332.169 253.058 332.724C248.701 335.674 244.279 339.813 239.79 345.144ZM266.929 365.887L255.073 372.401L255.748 384.299C255.748 384.299 263.427 378.757 270.034 376.915C278.457 374.566 281.866 372.772 285.982 367.527C288.184 364.721 290.054 359.079 287.957 357.242C287.153 356.537 284.157 358.202 281.1 359.901C278.77 361.196 276.404 362.51 274.947 362.81C272.985 363.214 273.215 360.672 273.398 358.64C273.53 357.182 273.638 355.987 272.895 356.332C269.425 356.392 266.929 365.887 266.929 365.887Z" fill="#997659"/>
<path fill-rule="evenodd" clip-rule="evenodd" d="M199.652 356.634C209.107 356.534 221.714 354.537 235.166 345.998L240.45 357.78C231.17 366.988 218.123 374.555 206.715 374.234C197.724 373.982 193.129 363.107 199.652 356.634Z" fill="#191919"/>
<path fill-rule="evenodd" clip-rule="evenodd" d="M174.153 437.35C165.165 436.178 156.906 435.101 152.012 436.065C146.52 418.231 151.08 407.002 155.289 396.636C157.826 390.389 160.236 384.455 160.241 377.577C160.256 357.549 176.338 326.721 178.704 326.721H179.383H198.135H200.282C201.246 339.115 205.364 352.534 209.507 366.039C210.475 369.193 211.444 372.352 212.375 375.503C228.057 379.063 262.877 366.672 262.877 366.672C262.877 366.672 271.668 384.858 271.004 392.602C250.737 403.189 233.366 407.909 219.054 408.221C219.509 416.713 218.475 424.793 215.003 432.176C210.35 442.069 190.975 439.543 174.153 437.35Z" fill="#191919"/>
<path fill-rule="evenodd" clip-rule="evenodd" d="M439.935 334.387C442.597 339.629 446.016 343.495 448.303 344.218C454.038 346.031 465.782 328.246 466.412 318.735C467.041 309.224 449.335 293.843 439.526 307.337C436.121 312.021 435.446 317.678 436.256 323.143L414.938 345.136L430.765 355.026L439.935 334.387Z" fill="#B28B67"/>
<path fill-rule="evenodd" clip-rule="evenodd" d="M472.472 313.229C470.271 316.752 465.711 317.903 462.119 315.917C459.747 315.288 456.911 314.142 453.959 312.561C453.588 313.768 453.003 315.036 452.173 316.364C451.44 317.537 450.533 318.7 449.506 319.814C449.348 318.699 448.824 317.709 447.99 317.188C445.657 315.73 442.834 316.635 441.561 318.673C439.945 321.259 440.268 324.063 442.354 325.574C438.038 328.115 433.55 329.256 430.838 327.561C425.687 324.343 426.328 315.167 430.955 307.763C431.117 307.502 431.284 307.247 431.455 306.997C428.963 307.104 426.367 307.663 423.752 308.226L423.752 308.226C418.197 309.422 412.557 310.636 407.654 307.572C397.845 301.443 406.313 279.224 420.017 287.788C429.337 293.611 433.073 297.835 435.768 302.313C437.92 300.603 440.262 299.499 442.521 299.117C443.117 298.942 443.888 298.9 444.797 298.983C445.364 299.016 445.92 299.101 446.458 299.24C449.388 299.854 453.225 301.393 457.164 303.667C457.9 304.092 458.611 304.526 459.295 304.966C461.576 301.341 466.363 300.242 469.998 302.513C473.64 304.789 474.748 309.587 472.472 313.229Z" fill="#191847"/>
<path fill-rule="evenodd" clip-rule="evenodd" d="M350.264 482.322C350.264 482.322 378.248 490.149 398.551 490.149C418.854 490.149 436.268 478.095 436.268 478.095C436.268 478.095 408.883 470.061 391.163 470.061C373.443 470.061 350.264 482.322 350.264 482.322Z" fill="#EDE2C1"/>
<path fill-rule="evenodd" clip-rule="evenodd" d="M414.701 497.67C414.521 497.399 414.369 497.105 414.248 496.786C411.755 490.192 371.813 419.049 367.833 406.042H412.803C415.828 415.932 429.445 477.991 431.362 490.373C437.408 509.904 449.857 573.158 451.447 577.54C453.119 582.15 443.711 586.952 441.205 581.285C437.216 572.267 427.712 547.316 423.481 532.081C419.513 517.798 416.283 504.949 414.701 497.67Z" fill="#997659"/>
<path fill-rule="evenodd" clip-rule="evenodd" d="M377.91 506.356C359.649 510.971 292.855 519.315 288.271 520.623C283.556 521.969 279.421 512.25 285.25 510.145C294.523 506.795 320.077 499.055 335.57 495.896C348.031 493.356 359.403 491.283 367.037 490.069C366.391 468.623 363.434 417.158 365.372 406.042H405.161C403.303 416.701 387.594 494.476 384.674 502.261C383.748 505.04 380.983 506.269 377.91 506.356Z" fill="#B28B67"/>
<path fill-rule="evenodd" clip-rule="evenodd" d="M286.903 509.529C287.12 508.644 286.582 507.733 285.685 507.576C284.049 507.29 281.612 506.948 280.312 507.177C278.241 507.543 274.388 508.934 274.388 508.934C274.812 511.337 282.004 552.129 282.004 552.129C282.004 552.129 287.868 552.831 287.672 549.125C287.476 545.419 287.411 542.957 287.411 542.957L292.821 521.302C292.927 520.877 292.661 520.448 292.233 520.354L288.875 519.615C288.875 519.615 286.716 516.533 286.346 514.434C286.121 513.156 286.54 511.011 286.903 509.529Z" fill="#E4E4E4"/>
<path fill-rule="evenodd" clip-rule="evenodd" d="M440.506 579.682C439.672 579.315 438.682 579.686 438.371 580.542C437.805 582.103 437.045 584.444 437.045 585.764C437.045 587.868 437.746 591.903 437.746 591.903C440.186 591.903 481.608 591.903 481.608 591.903C481.608 591.903 483.317 586.251 479.634 585.8C475.95 585.35 473.514 584.986 473.514 584.986L453.127 575.898C452.727 575.72 452.259 575.907 452.092 576.312L450.781 579.491C450.781 579.491 447.371 581.082 445.239 581.082C443.941 581.082 441.902 580.296 440.506 579.682Z" fill="#E4E4E4"/>
<path fill-rule="evenodd" clip-rule="evenodd" d="M365.5 406.042C365.5 406.042 391.801 398.518 415.271 406.042C420.714 430.879 433.942 440.736 436.268 478.815C409.827 491.953 377.165 469.445 349.947 482.257C342.171 464.337 353.058 421.179 365.5 406.042Z" fill="#FFFBEF"/>
<path fill-rule="evenodd" clip-rule="evenodd" d="M466.417 450.394L453.552 422.437L442.184 431.634L458.731 452.452C460.85 462.958 462.599 467.816 463.976 467.028C465.137 466.364 465.182 465.165 465.223 464.06C465.256 463.199 465.286 462.396 465.84 461.948C467.105 460.925 471.11 463.326 474.812 465.767C478.515 468.209 478.342 465.863 477.88 464.496C475.242 459.945 471.421 455.244 466.417 450.394ZM334.003 433.01C337.787 429.511 361.18 390.225 361.18 390.225L376.329 396.108C376.329 396.108 344.865 436.076 342.679 438.421C339.84 441.468 340.301 447.656 340.613 451.851C340.661 452.5 340.706 453.101 340.735 453.636C338.01 453.784 337.376 452.098 336.707 450.32C335.952 448.312 335.153 446.187 331.248 446.457C329.74 446.561 328.258 446.8 326.811 447.033C321.812 447.84 317.219 448.581 313.321 443.469C312.703 442.658 312.538 440.436 315.246 439.789C321.994 438.177 332.152 434.721 334.003 433.01Z" fill="#B28B67"/>
<path fill-rule="evenodd" clip-rule="evenodd" d="M428.733 343.113L435.425 344.446C435.869 375.596 445.322 407.373 463.784 439.777L433.941 456.69C419.073 414.934 414.917 376.146 428.733 343.113Z" fill="#D2A01F"/>
<path fill-rule="evenodd" clip-rule="evenodd" d="M371.082 411.502L426.985 432.961C426.985 432.961 425.69 378.268 438.364 345.251L422.465 336.265C401.03 352.493 387.214 377.298 371.082 411.502Z" fill="#DDE3E9"/>
<path fill-rule="evenodd" clip-rule="evenodd" d="M336.475 425.706C369.065 359.079 422.095 336.123 422.095 336.123L422.103 336.14C422.107 336.137 422.111 336.134 422.115 336.131L423.215 336.553C425.165 337.38 429.14 339.109 429.14 339.109L428.745 352.318C421.216 373.862 403.347 441.052 403.347 441.052L366.755 427.005C365.681 429.988 364.667 433.042 363.723 436.165L336.475 425.706Z" fill="#ECB72F"/>
<path fill-rule="evenodd" clip-rule="evenodd" d="M366.651 427.294C371.306 414.295 377.094 402.634 383.204 392.417C379.214 405.793 375.297 422.227 376.846 431.207L366.651 427.294Z" fill="black" fill-opacity="0.1"/>
<path fill-rule="evenodd" clip-rule="evenodd" d="M383.388 407.896L404.682 406.431L401.457 414.832L383.388 407.896Z" fill="white" fill-opacity="0.2"/>
<path fill-rule="evenodd" clip-rule="evenodd" d="M576.521 336.031C572.226 340.047 567.691 342.51 565.295 342.408C559.286 342.15 554.332 321.421 556.994 312.268C559.655 303.115 581.555 294.717 586.157 310.753C587.754 316.318 586.454 321.865 583.823 326.724L596.334 354.681L578.078 358.562L576.521 336.031Z" fill="#B28B67"/>
<path fill-rule="evenodd" clip-rule="evenodd" d="M586.005 330.09C586.129 319.41 591.18 311.073 589.214 306.729C587.249 302.385 582.696 302.192 582.696 302.192C582.696 302.192 578.543 293.634 566.66 297.569C554.777 301.505 548.423 308.138 553.995 318.577C556.943 317.95 560.276 316.127 565.587 316.908C568.114 317.28 570.084 321.589 570.084 321.589L572.309 321.116C572.309 321.116 574.406 315.06 577.856 315.813C581.306 316.567 580.756 322.422 580.756 322.422L583.638 330.593L586.005 330.09Z" fill="#191847"/>
<path fill-rule="evenodd" clip-rule="evenodd" d="M636.904 406.042L579.119 502.649L535.797 584.321H526.465L599.052 406.042L636.904 406.042Z" fill="#997659"/>
<path fill-rule="evenodd" clip-rule="evenodd" d="M539.347 579.682C540.18 579.315 541.171 579.686 541.481 580.542C542.047 582.104 542.807 584.444 542.807 585.764C542.807 587.868 542.106 591.903 542.106 591.903C539.666 591.903 498.245 591.903 498.245 591.903C498.245 591.903 496.535 586.251 500.219 585.8C503.902 585.35 506.339 584.986 506.339 584.986L526.725 575.898C527.125 575.72 527.594 575.907 527.761 576.312L529.071 579.491C529.071 579.491 532.481 581.082 534.613 581.082C535.911 581.082 537.95 580.296 539.347 579.682Z" fill="#E4E4E4"/>
<path fill-rule="evenodd" clip-rule="evenodd" d="M547.828 571.243L529.833 565.799C529.833 565.799 541.66 530.445 558.823 487.988C575.986 445.53 595.688 406.042 595.688 406.042H646.513C646.513 406.042 624.608 455.993 600.069 496.815C575.531 537.637 547.828 571.243 547.828 571.243Z" fill="#191919"/>
<path fill-rule="evenodd" clip-rule="evenodd" d="M640.702 406.042C646.156 439.99 656.674 483.363 657.667 484.702C658.329 485.594 682.154 493.578 729.143 508.652L727.127 516.881C671.093 508.796 641.568 502.524 638.552 498.063C634.028 491.373 611.437 438.52 602.687 406.042H640.702Z" fill="#B28B67"/>
<path fill-rule="evenodd" clip-rule="evenodd" d="M712.625 501.539L709.075 514.792C667.165 518.468 641.486 515.812 632.038 506.824C622.589 497.836 611.821 464.242 599.733 406.042H648.197C655.856 453.7 660.138 478.53 661.043 480.53C661.947 482.531 679.142 489.534 712.625 501.539Z" fill="#191919"/>
<path fill-rule="evenodd" clip-rule="evenodd" d="M725.611 507.196C725.395 506.311 725.932 505.4 726.829 505.243C728.465 504.957 730.902 504.615 732.202 504.844C734.274 505.21 738.126 506.601 738.126 506.601C737.702 509.004 730.51 549.796 730.51 549.796C730.51 549.796 724.646 550.498 724.842 546.792C725.038 543.086 725.104 540.624 725.104 540.624L719.693 518.969C719.587 518.544 719.853 518.115 720.281 518.021L723.639 517.282C723.639 517.282 725.798 514.2 726.168 512.101C726.393 510.823 725.974 508.678 725.611 507.196Z" fill="#E4E4E4"/>
<path fill-rule="evenodd" clip-rule="evenodd" d="M522.093 411.409L552.259 404.316L552.046 419.132L525.247 418.839C515.601 423.677 510.662 425.3 510.43 423.708C510.234 422.365 511.156 421.583 512.006 420.863C512.668 420.302 513.285 419.778 513.296 419.056C513.319 417.408 508.924 415.697 504.684 414.252C500.444 412.807 502.411 411.487 503.781 411.006C509.031 410.286 515.135 410.421 522.093 411.409ZM688.577 428.288C684.792 424.788 644.853 376.385 644.853 376.385L628.978 382.547C628.978 382.547 677.715 431.353 679.9 433.699C682.739 436.746 682.279 442.933 681.966 447.128C681.918 447.777 681.873 448.379 681.845 448.913C684.569 449.061 685.204 447.375 685.872 445.597C686.627 443.589 687.426 441.464 691.331 441.734C692.84 441.838 694.321 442.077 695.768 442.311C700.768 443.118 705.36 443.859 709.259 438.746C709.877 437.936 710.042 435.714 707.333 435.066C700.586 433.454 690.427 429.998 688.577 428.288Z" fill="#997659"/>
<path fill-rule="evenodd" clip-rule="evenodd" d="M581.953 342.679L569.824 348.287C577.404 377.198 567.431 401.126 527.769 409.546L536.512 447.168C573.188 438.271 598.463 412.518 590.203 372.23C588.065 361.801 585.432 351.104 581.953 342.679Z" fill="#D2A01F"/>
<path fill-rule="evenodd" clip-rule="evenodd" d="M586.751 336.672L587.945 336.214C625.445 350.694 657.342 379.266 683.635 421.931L645.497 436.571C641.928 427.96 638.236 419.659 634.355 411.693L583.421 431.245C582.259 423.439 581.664 415.743 581.059 407.912C579.657 389.778 578.199 370.916 569.503 348.262L586.705 336.703L586.71 336.688L586.751 336.672Z" fill="#ECB72F"/>
<path fill-rule="evenodd" clip-rule="evenodd" d="M634.355 411.693C626.454 395.476 617.77 380.65 607.747 367.428C614.8 382.975 622.638 402.612 624.003 415.667L634.355 411.693Z" fill="black" fill-opacity="0.1"/>
<defs>
<clipPath id="clip0_587_744">
<rect width="651.167" height="211.945" fill="white" transform="translate(38.3618 324.257)"/>
</clipPath>
<clipPath id="clip1_587_744">
<rect width="123.648" height="234.854" fill="white" transform="translate(183.583 102.698)"/>
</clipPath>
<clipPath id="clip2_587_744">
<rect width="101.874" height="158.643" fill="white" transform="translate(194.47 124.472)"/>
</clipPath>
<clipPath id="clip3_587_744">
<rect width="101.874" height="41.9937" fill="white" transform="translate(194.47 124.472)"/>
</clipPath>
<clipPath id="clip4_587_744">
<rect width="56.7692" height="16.7975" fill="white" transform="translate(224.799 137.07)"/>
</clipPath>
<clipPath id="clip5_587_744">
<rect width="101.874" height="32.6618" fill="white" transform="translate(194.47 172.687)"/>
</clipPath>
<clipPath id="clip6_587_744">
<rect width="56.7692" height="13.0647" fill="white" transform="translate(224.799 182.486)"/>
</clipPath>
<clipPath id="clip7_587_744">
<rect width="101.874" height="32.6618" fill="white" transform="translate(194.47 211.57)"/>
</clipPath>
<clipPath id="clip8_587_744">
<rect width="56.7692" height="13.0647" fill="white" transform="translate(224.799 221.369)"/>
</clipPath>
<clipPath id="clip9_587_744">
<rect width="101.874" height="32.6618" fill="white" transform="translate(194.47 250.453)"/>
</clipPath>
<clipPath id="clip10_587_744">
<rect width="56.7692" height="13.0647" fill="white" transform="translate(224.799 260.252)"/>
</clipPath>
<clipPath id="clip11_587_744">
<rect width="160.976" height="234.854" fill="white" transform="translate(197.581 122.917)"/>
</clipPath>
<clipPath id="clip12_587_744">
<rect width="101.874" height="158.643" fill="white" transform="translate(245.796 144.691)"/>
</clipPath>
<clipPath id="clip13_587_744">
<rect width="101.874" height="41.9937" fill="white" transform="translate(245.796 144.691)"/>
</clipPath>
<clipPath id="clip14_587_744">
<rect width="56.7692" height="16.7975" fill="white" transform="translate(252.795 157.289)"/>
</clipPath>
<clipPath id="clip15_587_744">
<rect width="101.874" height="32.6618" fill="white" transform="translate(245.796 192.906)"/>
</clipPath>
<clipPath id="clip16_587_744">
<rect width="56.7692" height="13.0647" fill="white" transform="translate(276.124 202.705)"/>
</clipPath>
<clipPath id="clip17_587_744">
<rect width="101.874" height="32.6618" fill="white" transform="translate(245.796 231.789)"/>
</clipPath>
<clipPath id="clip18_587_744">
<rect width="56.7692" height="13.0647" fill="white" transform="translate(252.795 241.588)"/>
</clipPath>
<clipPath id="clip19_587_744">
<rect width="101.874" height="32.6618" fill="white" transform="translate(245.796 270.672)"/>
</clipPath>
<clipPath id="clip20_587_744">
<rect width="56.7692" height="13.0647" fill="white" transform="translate(276.124 280.471)"/>
</clipPath>
<clipPath id="clip21_587_744">
<rect width="260.516" height="269.071" fill="white" transform="translate(286.234 142.358)"/>
</clipPath>
<clipPath id="clip22_587_744">
<rect width="54.4363" height="150.866" fill="white" transform="translate(479.871 245.009)"/>
</clipPath>
<clipPath id="clip23_587_744">
<rect width="26.4405" height="122.87" fill="white" transform="translate(493.869 259.007)"/>
</clipPath>
<clipPath id="clip24_587_744">
<rect width="174.974" height="219.3" fill="white" transform="translate(298.676 176.575)"/>
</clipPath>
<clipPath id="clip25_587_744">
<rect width="174.974" height="36.5501" fill="white" transform="translate(298.676 176.575)"/>
</clipPath>
<clipPath id="clip26_587_744">
<rect width="129.869" height="14.62" fill="white" transform="translate(305.675 187.54)"/>
</clipPath>
<clipPath id="clip27_587_744">
<rect width="174.974" height="30.3288" fill="white" transform="translate(298.676 219.347)"/>
</clipPath>
<clipPath id="clip28_587_744">
<rect width="129.869" height="12.1315" fill="white" transform="translate(305.675 228.445)"/>
</clipPath>
<clipPath id="clip29_587_744">
<rect width="174.974" height="30.3288" fill="white" transform="translate(298.676 255.897)"/>
</clipPath>
<clipPath id="clip30_587_744">
<rect width="129.869" height="12.1315" fill="white" transform="translate(305.675 264.995)"/>
</clipPath>
<clipPath id="clip31_587_744">
<rect width="174.974" height="30.3288" fill="white" transform="translate(298.676 365.547)"/>
</clipPath>
<clipPath id="clip32_587_744">
<rect width="129.869" height="12.1315" fill="white" transform="translate(305.675 374.646)"/>
</clipPath>
<clipPath id="clip33_587_744">
<rect width="174.974" height="30.3288" fill="white" transform="translate(298.676 328.997)"/>
</clipPath>
<clipPath id="clip34_587_744">
<rect width="129.869" height="12.1315" fill="white" transform="translate(305.675 338.095)"/>
</clipPath>
<clipPath id="clip35_587_744">
<rect width="174.974" height="30.3288" fill="white" transform="translate(298.676 292.447)"/>
</clipPath>
<clipPath id="clip36_587_744">
<rect width="129.869" height="12.1315" fill="white" transform="translate(305.675 301.545)"/>
</clipPath>
</defs>
</svg>
