<svg width="96" height="96" viewBox="0 0 96 96" fill="none" xmlns="http://www.w3.org/2000/svg">
<g clip-path="url(#clip0_587_740)">
<path fill-rule="evenodd" clip-rule="evenodd" d="M47.5948 95.5102C73.8807 95.5102 95.1896 74.2013 95.1896 47.9154C95.1896 21.6295 73.8807 0.320557 47.5948 0.320557C21.3089 0.320557 0 21.6295 0 47.9154C0 67.1658 11.4287 83.747 27.8713 91.2438L24.9453 70.4247C23.7761 62.105 29.6032 54.3081 37.9772 53.1312L52.3816 51.1068L52.3815 51.1061L59.1987 50.148C60.4577 49.9711 61.3359 48.8136 61.1601 47.5628L60.5195 43.0052L59.7639 43.1114C59.3442 43.1704 58.9565 42.8802 58.8979 42.4633L58.5774 40.1825C58.5188 39.7656 58.8115 39.3798 59.2311 39.3208L59.9875 39.2145L59.7742 37.6967L59.7743 37.6982L59.4533 35.4143C59.2785 34.1705 58.1274 33.3027 56.8765 33.4669L53.0701 34.0019L53.1771 34.7632C53.2357 35.1801 52.9429 35.5659 52.5233 35.6249L50.2524 35.9441C49.8327 36.003 49.445 35.7128 49.3864 35.2959L49.2794 34.5346L35.633 36.4525C27.259 37.6294 19.5087 31.7404 18.3395 23.4207L47.1485 19.372L47.0415 18.6107C46.9829 18.1938 47.2756 17.8079 47.6952 17.749L49.9661 17.4298C50.3858 17.3708 50.7735 17.661 50.8321 18.078L50.9391 18.8393L57.0041 17.9869C65.3781 16.81 73.1285 22.6987 74.2978 31.0184L75.1501 37.0835L75.9065 36.9772C76.3261 36.9182 76.7139 37.2084 76.7725 37.6254L77.093 39.9061C77.1516 40.3231 76.8589 40.7089 76.4392 40.7679L75.6828 40.8742L76.6417 47.6972C77.811 56.0169 71.9842 63.8138 63.6102 64.9908L42.3614 67.9771C41.1255 68.1649 40.2642 69.2995 40.4224 70.5312L43.8288 94.7692C43.8572 94.971 43.8589 95.1704 43.8367 95.364C45.0766 95.4608 46.33 95.5102 47.5948 95.5102Z" fill="white"/>
</g>
<defs>
<clipPath id="clip0_587_740">
<rect width="95.1896" height="95.1896" fill="white" transform="translate(0 0.320557)"/>
</clipPath>
</defs>
</svg>
