<svg width="135" height="66" viewBox="0 0 135 66" fill="none" xmlns="http://www.w3.org/2000/svg">
<path d="M9.13956 19.4566C10.2615 17.8776 11.7989 16.5687 13.7518 15.5299C15.7463 14.4496 18.0109 13.9094 20.5456 13.9094C23.4958 13.9094 26.1551 14.6366 28.5235 16.0909C30.9335 17.5452 32.8242 19.6228 34.1954 22.3237C35.6081 24.983 36.3145 28.0786 36.3145 31.6105C36.3145 35.1424 35.6081 38.2796 34.1954 41.022C32.8242 43.7229 30.9335 45.8213 28.5235 47.3171C26.1551 48.813 23.4958 49.561 20.5456 49.561C18.0109 49.561 15.7671 49.0416 13.8142 48.0028C11.9028 46.964 10.3446 45.6551 9.13956 44.0761V65.4546H0.413661V14.4704H9.13956V19.4566ZM27.4016 31.6105C27.4016 29.5329 26.9653 27.7462 26.0927 26.2503C25.2617 24.7129 24.1398 23.5494 22.727 22.76C21.3558 21.9705 19.86 21.5757 18.2394 21.5757C16.6605 21.5757 15.1646 21.9913 13.7518 22.8223C12.3806 23.6118 11.2587 24.7752 10.3861 26.3127C9.55508 27.8501 9.13956 29.6576 9.13956 31.7352C9.13956 33.8128 9.55508 35.6203 10.3861 37.1577C11.2587 38.6951 12.3806 39.8794 13.7518 40.7104C15.1646 41.4999 16.6605 41.8946 18.2394 41.8946C19.86 41.8946 21.3558 41.4791 22.727 40.6481C24.1398 39.817 25.2617 38.6328 26.0927 37.0954C26.9653 35.558 27.4016 33.7297 27.4016 31.6105ZM47.0807 10.3567C45.5433 10.3567 44.2552 9.87887 43.2164 8.92317C42.2191 7.92593 41.7205 6.70014 41.7205 5.24583C41.7205 3.79151 42.2191 2.5865 43.2164 1.63081C44.2552 0.633565 45.5433 0.134942 47.0807 0.134942C48.6181 0.134942 49.8854 0.633565 50.8827 1.63081C51.9215 2.5865 52.4409 3.79151 52.4409 5.24583C52.4409 6.70014 51.9215 7.92593 50.8827 8.92317C49.8854 9.87887 48.6181 10.3567 47.0807 10.3567ZM51.3813 14.4704V49H42.6554V14.4704H51.3813ZM68.7284 19.4566C69.8503 17.8776 71.3877 16.5687 73.3407 15.5299C75.3352 14.4496 77.5998 13.9094 80.1344 13.9094C83.0846 13.9094 85.7439 14.6366 88.1124 16.0909C90.5224 17.5452 92.413 19.6228 93.7842 22.3237C95.197 24.983 95.9034 28.0786 95.9034 31.6105C95.9034 35.1424 95.197 38.2796 93.7842 41.022C92.413 43.7229 90.5224 45.8213 88.1124 47.3171C85.7439 48.813 83.0846 49.561 80.1344 49.561C77.5998 49.561 75.356 49.0416 73.403 48.0028C71.4916 46.964 69.9334 45.6551 68.7284 44.0761V65.4546H60.0025V14.4704H68.7284V19.4566ZM86.9905 31.6105C86.9905 29.5329 86.5542 27.7462 85.6816 26.2503C84.8506 24.7129 83.7287 23.5494 82.3159 22.76C80.9447 21.9705 79.4488 21.5757 77.8283 21.5757C76.2493 21.5757 74.7535 21.9913 73.3407 22.8223C71.9695 23.6118 70.8476 24.7752 69.975 26.3127C69.1439 27.8501 68.7284 29.6576 68.7284 31.7352C68.7284 33.8128 69.1439 35.6203 69.975 37.1577C70.8476 38.6951 71.9695 39.8794 73.3407 40.7104C74.7535 41.4999 76.2493 41.8946 77.8283 41.8946C79.4488 41.8946 80.9447 41.4791 82.3159 40.6481C83.7287 39.817 84.8506 38.6328 85.6816 37.0954C86.5542 35.558 86.9905 33.7297 86.9905 31.6105ZM134.343 30.9872C134.343 32.2338 134.26 33.3557 134.094 34.3529H108.851C109.059 36.8461 109.931 38.799 111.469 40.2118C113.006 41.6245 114.897 42.3309 117.141 42.3309C120.382 42.3309 122.688 40.9389 124.059 38.1549H133.471C132.473 41.4791 130.562 44.2215 127.736 46.3822C124.911 48.5014 121.441 49.561 117.328 49.561C114.003 49.561 111.012 48.8338 108.352 47.3795C105.735 45.8836 103.678 43.7852 102.182 41.0844C100.728 38.3835 100 35.2671 100 31.7352C100 28.1617 100.728 25.0245 102.182 22.3237C103.636 19.6228 105.672 17.5452 108.29 16.0909C110.908 14.6366 113.92 13.9094 117.328 13.9094C120.61 13.9094 123.54 14.6158 126.116 16.0286C128.734 17.4413 130.749 19.4566 132.162 22.0744C133.616 24.6506 134.343 27.6215 134.343 30.9872ZM125.306 28.4941C125.264 26.2503 124.454 24.4636 122.875 23.1339C121.296 21.7627 119.364 21.0771 117.078 21.0771C114.918 21.0771 113.089 21.7419 111.593 23.0716C110.139 24.3597 109.246 26.1672 108.913 28.4941H125.306Z" fill="white"/>
</svg>
